<?xml version="1.0" encoding="UTF-8"?>
<!DOCTYPE svg PUBLIC "-//W3C//DTD SVG 1.1//EN" "http://www.w3.org/Graphics/SVG/1.1/DTD/svg11.dtd">
<svg xmlns="http://www.w3.org/2000/svg" version="1.1" width="158px" height="180px" style="shape-rendering:geometricPrecision; text-rendering:geometricPrecision; image-rendering:optimizeQuality; fill-rule:evenodd; clip-rule:evenodd" xmlns:xlink="http://www.w3.org/1999/xlink">
<g><path style="opacity:0.794" fill="#5b5c5d" d="M 0.5,1.5 C 1.16667,1.5 1.83333,1.5 2.5,1.5C 3.13891,11.2266 2.47225,20.5599 0.5,29.5C 0.5,20.1667 0.5,10.8333 0.5,1.5 Z"/></g>
<g><path style="opacity:1" fill="#f9f9f9" d="M 144.5,122.5 C 124.995,137.834 105.328,153.001 85.5,168C 80.7645,171.256 76.0978,171.256 71.5,168C 51.2539,153.39 31.2539,138.556 11.5,123.5C 10.2702,121.703 9.60357,119.703 9.5,117.5C 9.5,83.8333 9.5,50.1667 9.5,16.5C 10.5,16.5 11.5,16.5 12.5,16.5C 29.0082,28.8353 45.6748,41.0019 62.5,53C 63.3029,57.4145 63.8029,61.9145 64,66.5C 68.5077,70.0843 73.1744,73.4176 78,76.5C 82.6301,73.3738 87.1301,70.0405 91.5,66.5C 92.3265,62.5408 92.8265,58.5408 93,54.5C 108.923,42.4544 124.757,30.2878 140.5,18C 142.217,16.4412 144.217,15.6079 146.5,15.5C 146.667,49.835 146.5,84.1683 146,118.5C 145.59,119.901 145.09,121.234 144.5,122.5 Z"/></g>
<g><path style="opacity:0.757" fill="#2c2d2d" d="M 1.5,-0.5 C 2.16667,-0.5 2.83333,-0.5 3.5,-0.5C 24.0214,14.6909 44.5214,30.0242 65,45.5C 69.0483,41.9445 73.2149,38.6112 77.5,35.5C 81.4866,37.8374 85.1533,40.6707 88.5,44C 89.7589,44.9819 91.0922,45.3152 92.5,45C 112.748,30.0557 132.748,14.8891 152.5,-0.5C 152.833,-0.5 153.167,-0.5 153.5,-0.5C 153.729,40.0918 153.729,80.7585 153.5,121.5C 152.502,91.3379 152.169,61.0046 152.5,30.5C 152.832,21.1429 152.498,11.8096 151.5,2.5C 131.833,17.3333 112.167,32.1667 92.5,47C 91.5,47.6667 90.5,47.6667 89.5,47C 85.6438,43.643 81.6438,40.4763 77.5,37.5C 73.189,40.6434 69.0224,43.9767 65,47.5C 44.2889,31.9491 23.4556,16.6157 2.5,1.5C 1.83333,1.5 1.16667,1.5 0.5,1.5C 0.833333,0.833333 1.16667,0.166667 1.5,-0.5 Z"/></g>
<g><path style="opacity:1" fill="#090a0a" d="M 2.5,1.5 C 23.4556,16.6157 44.2889,31.9491 65,47.5C 69.0224,43.9767 73.189,40.6434 77.5,37.5C 81.6438,40.4763 85.6438,43.643 89.5,47C 90.5,47.6667 91.5,47.6667 92.5,47C 112.167,32.1667 131.833,17.3333 151.5,2.5C 152.498,11.8096 152.832,21.1429 152.5,30.5C 151.502,61.6622 151.168,92.9956 151.5,124.5C 148.848,124.59 146.515,123.924 144.5,122.5C 145.09,121.234 145.59,119.901 146,118.5C 146.5,84.1683 146.667,49.835 146.5,15.5C 144.217,15.6079 142.217,16.4412 140.5,18C 124.757,30.2878 108.923,42.4544 93,54.5C 92.8265,58.5408 92.3265,62.5408 91.5,66.5C 87.1301,70.0405 82.6301,73.3738 78,76.5C 73.1744,73.4176 68.5077,70.0843 64,66.5C 63.8029,61.9145 63.3029,57.4145 62.5,53C 45.6748,41.0019 29.0082,28.8353 12.5,16.5C 11.4324,15.5655 10.099,15.2322 8.5,15.5C 8.16834,49.6708 8.50167,83.6708 9.5,117.5C 9.60357,119.703 10.2702,121.703 11.5,123.5C 11.8477,126.019 13.1811,127.853 15.5,129C 14.0577,129.377 13.0577,130.21 12.5,131.5C 9.26892,129.78 6.43559,127.447 4,124.5C 4.16098,92.8173 3.32764,61.484 1.5,30.5C 0.833333,30.5 0.5,30.1667 0.5,29.5C 2.47225,20.5599 3.13891,11.2266 2.5,1.5 Z"/></g>
<g><path style="opacity:1" fill="#060606" d="M 18.5,116.5 C 18.1707,101.657 18.504,86.9905 19.5,72.5C 23.5491,75.6131 27.7157,78.6131 32,81.5C 32.1679,90.8511 32.6679,100.184 33.5,109.5C 38.9007,114.241 44.5674,118.574 50.5,122.5C 50.56,123.043 50.8933,123.376 51.5,123.5C 52.825,110.673 52.825,98.0062 51.5,85.5C 50.5231,82.0108 48.5231,79.1775 45.5,77C 41,73.8333 36.5,70.6667 32,67.5C 31.7811,68.938 31.2811,70.2713 30.5,71.5C 25.9146,69.0812 21.748,66.0812 18,62.5C 17.1684,54.4792 17.3351,46.4792 18.5,38.5C 29.9748,46.8076 41.3081,55.3076 52.5,64C 65.9141,73.8223 70.5808,86.989 66.5,103.5C 66.6229,112.239 66.1229,120.905 65,129.5C 61.6013,134.893 56.9346,138.893 51,141.5C 39.9923,133.317 29.159,124.984 18.5,116.5 Z"/></g>
<g><path style="opacity:1" fill="#080808" d="M 123.5,126.5 C 123.833,109.154 123.5,91.8205 122.5,74.5C 121.893,74.6236 121.56,74.9569 121.5,75.5C 119.265,76.2279 117.432,77.5612 116,79.5C 115.667,97.5 115.333,115.5 115,133.5C 110.676,136.331 106.509,139.331 102.5,142.5C 101.833,127.833 101.167,113.167 100.5,98.5C 97.8763,96.8989 95.2096,95.2322 92.5,93.5C 92.44,92.9569 92.1067,92.6236 91.5,92.5C 90.5004,112.155 90.167,131.822 90.5,151.5C 86.5681,154.479 82.5681,157.479 78.5,160.5C 77.5224,160.023 76.6891,159.357 76,158.5C 75.3333,136.5 75.3333,114.5 76,92.5C 81.3532,87.6457 86.8532,82.9791 92.5,78.5C 94.6866,80.4216 97.0199,82.0883 99.5,83.5C 99.8212,85.0481 100.821,85.7148 102.5,85.5C 102.5,81.8333 102.5,78.1667 102.5,74.5C 102.933,71.8045 104.266,69.6379 106.5,68C 116.167,60.3333 125.833,52.6667 135.5,45C 136.448,44.5172 137.448,44.3505 138.5,44.5C 138.667,68.169 138.5,91.8357 138,115.5C 133.406,119.54 128.573,123.206 123.5,126.5 Z"/></g>
<g><path style="opacity:1" fill="#cccccc" d="M 121.5,75.5 C 121.56,74.9569 121.893,74.6236 122.5,74.5C 123.5,91.8205 123.833,109.154 123.5,126.5C 122.833,109.5 122.167,92.5 121.5,75.5 Z"/></g>
<g><path style="opacity:1" fill="#c8c9ca" d="M 12.5,16.5 C 11.5,16.5 10.5,16.5 9.5,16.5C 9.5,50.1667 9.5,83.8333 9.5,117.5C 8.50167,83.6708 8.16834,49.6708 8.5,15.5C 10.099,15.2322 11.4324,15.5655 12.5,16.5 Z"/></g>
<g><path style="opacity:1" fill="#464645" d="M 102.5,74.5 C 102.5,78.1667 102.5,81.8333 102.5,85.5C 100.821,85.7148 99.8212,85.0481 99.5,83.5C 100.117,83.6107 100.617,83.944 101,84.5C 101.179,80.9748 101.679,77.6414 102.5,74.5 Z"/></g>
<g><path style="opacity:1" fill="#303132" d="M 19.5,72.5 C 18.504,86.9905 18.1707,101.657 18.5,116.5C 17.1738,101.661 17.1738,86.6614 18.5,71.5C 19.1067,71.6236 19.44,71.9569 19.5,72.5 Z"/></g>
<g><path style="opacity:1" fill="#929292" d="M 51.5,85.5 C 52.825,98.0062 52.825,110.673 51.5,123.5C 50.8933,123.376 50.56,123.043 50.5,122.5C 51.4952,110.345 51.8286,98.0113 51.5,85.5 Z"/></g>
<g><path style="opacity:1" fill="#4f4f4f" d="M 92.5,93.5 C 91.8333,112.833 91.1667,132.167 90.5,151.5C 90.167,131.822 90.5004,112.155 91.5,92.5C 92.1067,92.6236 92.44,92.9569 92.5,93.5 Z"/></g>
<g><path style="opacity:1" fill="#acacac" d="M 100.5,98.5 C 101.167,113.167 101.833,127.833 102.5,142.5C 102.44,143.043 102.107,143.376 101.5,143.5C 100.501,128.515 100.167,113.515 100.5,98.5 Z"/></g>
<g><path style="opacity:0.294" fill="#3f4040" d="M 1.5,30.5 C 3.32764,61.484 4.16098,92.8173 4,124.5C 6.43559,127.447 9.26892,129.78 12.5,131.5C 22.8333,139.5 33.1667,147.5 43.5,155.5C 32.0504,147.933 20.717,140.1 9.5,132C 6.28495,129.786 3.78495,126.952 2,123.5C 1.50002,92.5018 1.33335,61.5018 1.5,30.5 Z"/></g>
<g><path style="opacity:1" fill="#0f1010" d="M 152.5,30.5 C 152.169,61.0046 152.502,91.3379 153.5,121.5C 152.288,125.398 149.954,128.564 146.5,131C 124.296,147.059 102.296,163.225 80.5,179.5C 78.8333,179.5 77.1667,179.5 75.5,179.5C 64.5721,171.913 53.9055,163.913 43.5,155.5C 33.1667,147.5 22.8333,139.5 12.5,131.5C 13.0577,130.21 14.0577,129.377 15.5,129C 13.1811,127.853 11.8477,126.019 11.5,123.5C 31.2539,138.556 51.2539,153.39 71.5,168C 76.0978,171.256 80.7645,171.256 85.5,168C 105.328,153.001 124.995,137.834 144.5,122.5C 146.515,123.924 148.848,124.59 151.5,124.5C 151.168,92.9956 151.502,61.6622 152.5,30.5 Z"/></g>
</svg>
