<?xml version="1.0" encoding="UTF-8"?>
<!DOCTYPE svg PUBLIC "-//W3C//DTD SVG 1.1//EN" "http://www.w3.org/Graphics/SVG/1.1/DTD/svg11.dtd">
<svg xmlns="http://www.w3.org/2000/svg" version="1.1" width="340px" height="170px" style="shape-rendering:geometricPrecision; text-rendering:geometricPrecision; image-rendering:optimizeQuality; fill-rule:evenodd; clip-rule:evenodd" xmlns:xlink="http://www.w3.org/1999/xlink">
<g><path style="opacity:1" fill="#f7f7f6" d="M 233.5,114.5 C 230.694,118.137 227.361,121.304 223.5,124C 208.55,134.615 193.884,145.615 179.5,157C 174.91,160.699 169.91,161.365 164.5,159C 145.47,144.824 126.47,130.658 107.5,116.5C 106.91,115.234 106.41,113.901 106,112.5C 105.5,79.835 105.333,47.1684 105.5,14.5C 106.552,14.3505 107.552,14.5172 108.5,15C 124.244,26.9551 140.077,38.7884 156,50.5C 156.333,54.5 156.667,58.5 157,62.5C 161.077,66.4117 165.577,69.745 170.5,72.5C 174.811,69.3566 178.978,66.0233 183,62.5C 183.333,58.8333 183.667,55.1667 184,51.5C 200.359,38.9742 216.859,26.6409 233.5,14.5C 234.819,47.8701 234.819,81.2034 233.5,114.5 Z"/></g>
<g><path style="opacity:0.496" fill="#4a4b4b" d="M 98.5,-0.5 C 99.1667,-0.5 99.8333,-0.5 100.5,-0.5C 118.86,13.8533 137.527,27.8533 156.5,41.5C 156.631,42.2389 156.464,42.9056 156,43.5C 137.333,29.5 118.667,15.5 100,1.5C 99.5002,10.8274 99.3335,20.1607 99.5,29.5C 99.8313,58.3382 99.498,87.0049 98.5,115.5C 98.276,76.758 98.276,38.0914 98.5,-0.5 Z"/></g>
<g><path style="opacity:1" fill="#0e0f0f" d="M 156.5,41.5 C 157.167,41.8333 157.833,42.1667 158.5,42.5C 157.031,44.1053 157.365,44.6053 159.5,44C 162.743,40.8022 166.243,37.9688 170,35.5C 173.24,37.8745 176.406,40.3745 179.5,43C 180.437,43.6917 181.103,43.525 181.5,42.5C 182.167,42.5 182.5,42.8333 182.5,43.5C 182.369,44.2389 182.536,44.9056 183,45.5C 201.923,31.288 220.757,16.9547 239.5,2.5C 240.498,11.1411 240.831,19.8078 240.5,28.5C 239.502,57.9953 239.169,87.662 239.5,117.5C 236.607,117.969 234.607,116.969 233.5,114.5C 234.819,81.2034 234.819,47.8701 233.5,14.5C 216.859,26.6409 200.359,38.9742 184,51.5C 183.667,55.1667 183.333,58.8333 183,62.5C 178.978,66.0233 174.811,69.3566 170.5,72.5C 165.577,69.745 161.077,66.4117 157,62.5C 156.667,58.5 156.333,54.5 156,50.5C 140.077,38.7884 124.244,26.9551 108.5,15C 107.552,14.5172 106.552,14.3505 105.5,14.5C 105.333,47.1684 105.5,79.835 106,112.5C 106.41,113.901 106.91,115.234 107.5,116.5C 108.013,118.854 109.179,120.854 111,122.5C 111.749,123.635 111.583,124.635 110.5,125.5C 106.79,123.407 103.623,120.74 101,117.5C 100.832,87.9971 100.332,58.6638 99.5,29.5C 99.3335,20.1607 99.5002,10.8274 100,1.5C 118.667,15.5 137.333,29.5 156,43.5C 156.464,42.9056 156.631,42.2389 156.5,41.5 Z"/></g>
<g><path style="opacity:0.124" fill="#2d2e2e" d="M 240.5,-0.5 C 240.833,-0.5 241.167,-0.5 241.5,-0.5C 241.724,38.0914 241.724,76.758 241.5,115.5C 240.502,86.6715 240.169,57.6715 240.5,28.5C 240.831,19.8078 240.498,11.1411 239.5,2.5C 220.757,16.9547 201.923,31.288 183,45.5C 182.536,44.9056 182.369,44.2389 182.5,43.5C 202.141,29.186 221.474,14.5194 240.5,-0.5 Z"/></g>
<g><path style="opacity:0.997" fill="#121313" d="M 240.5,28.5 C 240.169,57.6715 240.502,86.6715 241.5,115.5C 239.78,118.731 237.447,121.564 234.5,124C 213.983,139.03 193.65,154.197 173.5,169.5C 171.5,169.5 169.5,169.5 167.5,169.5C 146.411,153.777 125.078,138.277 103.5,123C 100.796,121.14 99.1289,118.64 98.5,115.5C 99.498,87.0049 99.8313,58.3382 99.5,29.5C 100.332,58.6638 100.832,87.9971 101,117.5C 103.623,120.74 106.79,123.407 110.5,125.5C 111.583,124.635 111.749,123.635 111,122.5C 109.179,120.854 108.013,118.854 107.5,116.5C 126.47,130.658 145.47,144.824 164.5,159C 169.91,161.365 174.91,160.699 179.5,157C 193.884,145.615 208.55,134.615 223.5,124C 227.361,121.304 230.694,118.137 233.5,114.5C 234.607,116.969 236.607,117.969 239.5,117.5C 239.169,87.662 239.502,57.9953 240.5,28.5 Z"/></g>
<g><path style="opacity:1" fill="#a1a1a1" d="M 191.5,92.5 C 192.167,106.5 192.833,120.5 193.5,134.5C 193.44,135.043 193.107,135.376 192.5,135.5C 191.501,121.182 191.167,106.849 191.5,92.5 Z"/></g>
<g><path style="opacity:1" fill="#787878" d="M 211.5,70.5 C 211.56,69.9569 211.893,69.6236 212.5,69.5C 213.167,85.995 213.833,102.328 214.5,118.5C 214.44,119.043 214.107,119.376 213.5,119.5C 212.833,103.005 212.167,86.6717 211.5,70.5 Z"/></g>
<g><path style="opacity:1" fill="#040404" d="M 214.5,118.5 C 213.833,102.328 213.167,85.995 212.5,69.5C 211.893,69.6236 211.56,69.9569 211.5,70.5C 209.852,71.8098 208.186,73.1431 206.5,74.5C 205.667,91.4902 205.167,108.49 205,125.5C 201.291,128.715 197.458,131.715 193.5,134.5C 192.833,120.5 192.167,106.5 191.5,92.5C 188.475,91.2347 185.642,89.568 183,87.5C 182.667,106.167 182.333,124.833 182,143.5C 178.316,146.172 174.649,148.839 171,151.5C 170.228,151.355 169.561,151.022 169,150.5C 168.333,129.167 168.333,107.833 169,86.5C 173.723,82.1062 178.723,78.1062 184,74.5C 186.397,76.2847 188.897,77.9514 191.5,79.5C 192.137,75.4285 192.971,71.4285 194,67.5C 204.483,58.5938 215.15,49.9271 226,41.5C 226.667,64.1667 226.667,86.8333 226,109.5C 222.291,112.715 218.458,115.715 214.5,118.5 Z"/></g>
<g><path style="opacity:1" fill="#060706" d="M 144.5,115.5 C 144.56,116.043 144.893,116.376 145.5,116.5C 146.824,104.673 146.824,93.0067 145.5,81.5C 145.392,79.2166 144.559,77.2166 143,75.5C 137.667,71.5 132.333,67.5 127,63.5C 126.781,64.938 126.281,66.2713 125.5,67.5C 121.579,64.9566 117.746,62.2899 114,59.5C 113.169,51.8117 113.335,44.145 114.5,36.5C 128.636,46.3235 142.136,56.9902 155,68.5C 156.08,70.9962 157.414,73.3295 159,75.5C 159.667,90.1667 159.667,104.833 159,119.5C 156.346,126.154 151.68,130.82 145,133.5C 134.703,126.04 124.536,118.373 114.5,110.5C 113.167,96.1667 113.167,81.8333 114.5,67.5C 118.811,70.6434 122.978,73.9767 127,77.5C 127.168,86.1858 127.668,94.8525 128.5,103.5C 133.569,107.909 138.902,111.909 144.5,115.5 Z"/></g>
<g><path style="opacity:1" fill="#747474" d="M 145.5,81.5 C 146.824,93.0067 146.824,104.673 145.5,116.5C 144.893,116.376 144.56,116.043 144.5,115.5C 145.495,104.346 145.828,93.0123 145.5,81.5 Z"/></g>
<g><path style="opacity:0.114" fill="#2e2f2e" d="M 181.5,42.5 C 181.103,43.525 180.437,43.6917 179.5,43C 176.406,40.3745 173.24,37.8745 170,35.5C 166.243,37.9688 162.743,40.8022 159.5,44C 157.365,44.6053 157.031,44.1053 158.5,42.5C 161.896,38.9374 165.729,35.9374 170,33.5C 174.295,35.9683 178.129,38.9683 181.5,42.5 Z"/></g>
</svg>
